<svg viewBox="0 0 551.974 193.339" fill="none" stroke-linecap="square" stroke-miterlimit="10" xmlns="http://www.w3.org/2000/svg"><clipPath id="a"><path d="M0 0h551.974v193.339H0V0z"/></clipPath><g clip-path="url(#a)"><path d="M0 0h551.974v193.339H0z"/><path fill="#d9d9d9" d="M231.16 68.835c0-6.854 5.556-12.41 12.41-12.41h49.637a12.41 12.41 0 0 1 12.41 12.41v62.456c0 6.854-5.556 12.41-12.41 12.41H243.57c-6.854 0-12.41-5.556-12.41-12.41z" fill-rule="evenodd"/><path fill="#000" d="M6.958 57.402c0-12.988 10.53-23.517 23.518-23.517h164.083a23.518 23.518 0 0 1 23.517 23.517v94.067c0 12.989-10.53 23.518-23.517 23.518H30.476c-12.989 0-23.518-10.53-23.518-23.518z" fill-rule="evenodd"/><path fill="#ff0" d="M318.7 47.213c0-11.345 9.197-20.541 20.542-20.541h182.697a20.541 20.541 0 0 1 20.541 20.541v82.162c0 11.344-9.196 20.541-20.54 20.541H339.241c-11.345 0-20.541-9.197-20.541-20.541z" fill-rule="evenodd"/><path d="M6.958-1.094h543.244v195.527H6.958z"/><path fill="#fff" d="M38.364 48.864v17.922H54.74q1.672 1.28 1.985 1.984.328.703.328 3.64v3.329H38.364v40.843q0 1.922.188 2.5.187.563 1.344 1.47 1.156.89 1.796 1.093.641.187 2.938.187h11.64q1.672 1.266 1.985 1.985.328.703.328 3.64v3.329H39.896q-3.079 0-6.141-2.563l-3.078-2.562q-3.078-2.563-3.078-6.391V75.739h-6.141q-1.656-1.266-1.984-1.97-.313-.718-.313-3.655v-3.328H27.6V48.864h10.765zm78.712 76.797h-.515q0 1.546-2.813 3.203-2.297 1.406-3.14 1.672-.828.25-3.125.25H85.592q-3.078 0-6.14-2.563l-3.079-2.562q-3.078-2.563-3.078-6.391v-15.36q0-3.843 3.078-6.406l3.078-2.562q3.063-2.563 6.141-2.563h22.906q2.438 0 3.078.203.641.188 1.657 1.079 1.547 1.28 1.547 2.562h.5V80.989q0-1.922-.188-2.485-.187-.578-1.344-1.468-1.156-.907-1.797-1.094-.64-.203-2.937-.203H88.28q-2.313 0-3.141.328-.828.312-3.14 2.234l-7.673-6.39 3.079-2.563q2.296-1.922 3.125-2.234.843-.328 3.14-.328h30.078q3.078 0 6.14 2.562l3.079 2.563q3.078 2.562 3.078 6.39v38.281q0 1.922.188 2.5.187.563 1.343 1.47 1.157.89 1.344 1.468.188.578.188 2.5v6.266h-4.485q-2.297 0-3.14-.313-.828-.328-2.36-1.61-2.047-1.656-2.047-3.202zm-33.015-19.063v9.984q0 1.922.187 2.5.188.563 1.344 1.47 1.156.89 1.797 1.093.64.187 2.937.187h15.61q2.312 0 3.14-.25.829-.265 3.125-1.671 2.313-1.407 2.688-2.047.39-.641.39-2.563v-8.703q0-1.922-.187-2.5-.187-.578-1.344-1.469-1.156-.906-1.797-1.093-.64-.188-2.937-.188H90.326q-2.296 0-2.937.188-.64.187-1.797 1.093-1.156.89-1.344 1.469-.187.578-.187 2.5zm77.432 15.234h18.313q3.062 0 6.125-2.562 3.078-2.563 3.078-5.125V82.27q0-1.922-.39-2.563-.376-.64-2.688-2.046-2.297-1.407-3.125-1.657-.828-.265-3.141-.265h-18.172q-2.297 0-2.937.203-.641.187-1.797 1.094-1.156.89-1.344 1.468-.187.563-.187 2.485v35.593q0 1.922.187 2.5.188.563 1.344 1.47 1.156.89 1.797 1.093.64.187 2.937.187zm-9.094 33.266h30.344q2.297 0 2.938-.187.64-.188 1.797-1.094 1.156-.89 1.343-1.469.188-.578.188-2.484v-25.22h-.5q-.266 1.157-3.078 3.579-3.078 2.563-6.141 2.563h-22.531q-3.078 0-6.14-2.563l-3.079-2.562q-3.062-2.563-3.062-6.391V78.3q0-3.828 3.062-6.39l3.078-2.563q3.063-2.562 6.14-2.562h24.454q2.297 0 3.125.265.844.25 3.14 1.656 2.813 1.657 2.813 3.204h.516q0-1.547 2.047-3.204 1.53-1.28 2.359-1.593.844-.328 3.14-.328h4.485v6.265q0 1.922-.203 2.5-.188.578-1.344 1.485-1.14.89-1.344 1.468-.187.563-.187 2.485v71.562q0 3.828-3.063 6.39l-3.078 2.563q-3.062 2.563-6.14 2.563h-37.375v-3.328q0-2.938.312-3.657.328-.703 1.984-1.984z"/><path fill="#999" d="M283.252 125.66h-.515q0 1.547-2.813 3.204-2.297 1.406-3.14 1.672-.828.25-3.125.25h-21.891q-3.078 0-6.14-2.563l-3.079-2.562q-3.078-2.563-3.078-6.391v-15.36q0-3.843 3.078-6.406l3.078-2.562q3.063-2.563 6.141-2.563h22.906q2.438 0 3.078.203.641.188 1.657 1.079 1.547 1.28 1.547 2.562h.5V80.989q0-1.922-.188-2.485-.187-.578-1.344-1.468-1.156-.907-1.797-1.094-.64-.203-2.937-.203h-20.734q-2.313 0-3.141.328-.828.312-3.14 2.234l-7.673-6.39 3.079-2.563q2.296-1.922 3.125-2.234.843-.328 3.14-.328h30.078q3.078 0 6.14 2.562l3.079 2.563q3.078 2.562 3.078 6.39v38.281q0 1.922.188 2.5.187.563 1.343 1.47 1.157.89 1.344 1.468.188.578.188 2.5v6.266h-4.485q-2.297 0-3.14-.313-.828-.328-2.36-1.61-2.047-1.656-2.047-3.202zm-33.015-19.062v9.984q0 1.922.187 2.5.188.563 1.344 1.47 1.156.89 1.797 1.093.64.187 2.937.187h15.61q2.312 0 3.14-.25.829-.265 3.125-1.671 2.313-1.407 2.688-2.047.39-.641.39-2.563v-8.703q0-1.922-.187-2.5-.187-.578-1.344-1.469-1.156-.906-1.797-1.093-.64-.188-2.937-.188h-18.688q-2.296 0-2.937.188-.64.187-1.797 1.093-1.156.89-1.344 1.469-.187.578-.187 2.5z"/><path fill="#000" d="M365.982 75.739h-18.313q-2.297 0-2.937.203-.641.187-1.797 1.094-1.156.89-1.344 1.468-.187.563-.187 2.485v35.593q0 1.922.187 2.5.188.563 1.344 1.47 1.156.89 1.797 1.093.64.187 2.937.187h18.172q2.313 0 3.14-.25.829-.265 3.126-1.671 2.312-1.407 2.687-2.047.39-.641.39-2.563V83.426q0-2.562-3.077-5.125-3.063-2.562-6.125-2.562zm1.406 55.047h-24.453q-3.078 0-6.14-2.563l-3.079-2.562q-3.062-2.563-3.062-6.391V78.3q0-3.828 3.062-6.39l3.078-2.563q3.063-2.562 6.14-2.562h22.532q3.063 0 6.14 2.562 3.079 3.063 3.079 3.844h.5V36.067h10.75v80.515q0 1.922.187 2.5.203.563 1.344 1.47 1.156.89 1.344 1.468.203.578.203 2.5v6.266h-4.484q-2.297 0-3.141-.313-.828-.328-2.36-1.61-2.046-1.656-2.046-3.202h-.516q0 1.546-2.812 3.203-2.297 1.406-3.141 1.672-.828.25-3.125.25zm49.4-64h30.719q3.078 0 6.14 2.562l3.078 2.563q3.078 2.562 3.078 6.39v40.969q0 3.828-3.078 6.39l-3.078 2.563q-3.062 2.563-6.14 2.563h-30.72q-3.062 0-6.14-2.563l-3.078-2.562q-3.062-2.563-3.062-6.391V78.3q0-3.828 3.062-6.39l3.078-2.563q3.078-2.562 6.14-2.562zm32.265 49.796V80.99q0-1.922-.203-2.485-.187-.578-1.343-1.468-1.157-.907-1.797-1.094-.625-.203-2.938-.203h-21.25q-2.297 0-2.937.203-.641.187-1.797 1.094-1.156.89-1.344 1.468-.187.563-.187 2.485v35.593q0 1.922.187 2.5.188.563 1.344 1.47 1.156.89 1.797 1.093.64.187 2.937.187h21.25q2.313 0 2.938-.187.64-.203 1.797-1.094 1.156-.906 1.343-1.469.203-.578.203-2.5zm77.428-33.156h-10.75V80.99q0-1.922-.187-2.485-.188-.578-1.344-1.468-1.156-.907-1.797-1.094-.64-.203-2.938-.203H492.31q-2.297 0-2.937.203-.641.187-1.797 1.094-1.156.89-1.344 1.468-.187.563-.187 2.485v35.593q0 1.922.187 2.5.188.563 1.344 1.47 1.156.89 1.797 1.093.64.187 2.937.187h17.156q2.297 0 2.938-.187.64-.203 1.797-1.094 1.156-.906 1.344-1.469.187-.578.187-2.5v-2.437h10.75v5.125q0 3.828-3.062 6.39l-3.079 2.563q-3.078 2.563-6.14 2.563h-26.625q-3.078 0-6.14-2.563l-3.079-2.562q-3.062-2.563-3.062-6.391V78.3q0-3.828 3.062-6.39l3.078-2.563q3.063-2.562 6.14-2.562H514.2q3.062 0 6.14 2.562l3.079 2.563q3.062 2.562 3.062 6.39v5.125z"/></g></svg>